<svg preserveAspectRatio="none" overflow="visible" style="display: block;" width="1.62337" height="1.73029" viewBox="0 0 1.62337 1.73029" fill="none" xmlns="http://www.w3.org/2000/svg">
<path id="Vector" d="M1.62337 0.865147C1.62337 1.0304 1.58853 1.17864 1.51887 1.30987C1.45082 1.4411 1.35523 1.54398 1.23211 1.61851C1.10898 1.69303 0.968835 1.73029 0.811683 1.73029C0.654531 1.73029 0.51439 1.69303 0.39126 1.61851C0.268131 1.54398 0.171733 1.4411 0.102068 1.30987C0.0340226 1.17864 0 1.0304 0 0.865147C0 0.699894 0.0340226 0.551653 0.102068 0.420423C0.171733 0.289192 0.268131 0.186314 0.39126 0.111789C0.51439 0.0372629 0.654531 0 0.811683 0C0.968835 0 1.10898 0.0372629 1.23211 0.111789C1.35523 0.186314 1.45082 0.289192 1.51887 0.420423C1.58853 0.551653 1.62337 0.699894 1.62337 0.865147ZM0.216287 0.865147C0.216287 0.994757 0.241399 1.1106 0.291623 1.21266C0.341847 1.31311 0.411512 1.3925 0.500619 1.45082C0.591346 1.50753 0.695034 1.53588 0.811683 1.53588C0.928332 1.53588 1.03121 1.50753 1.12032 1.45082C1.21104 1.3925 1.28152 1.31311 1.33174 1.21266C1.38197 1.1106 1.40708 0.994757 1.40708 0.865147C1.40708 0.735537 1.38197 0.620508 1.33174 0.52006C1.28152 0.417992 1.21104 0.338606 1.12032 0.281902C1.03121 0.223577 0.928332 0.194415 0.811683 0.194415C0.695034 0.194415 0.591346 0.223577 0.500619 0.281902C0.411512 0.338606 0.341847 0.417992 0.291623 0.52006C0.241399 0.620508 0.216287 0.735537 0.216287 0.865147Z" fill="#181348"/>
</svg>
