<svg preserveAspectRatio="none" overflow="visible" style="display: block;" width="61.6346" height="5.50567" viewBox="0 0 61.6346 5.50567" fill="none" xmlns="http://www.w3.org/2000/svg">
<g id="subtitle">
<path id="Vector" d="M59.3918 1.50333H58.8418C58.8418 0.635556 59.3124 0 60.3207 0C61.0662 0 61.6346 0.464444 61.6346 1.11833C61.6346 1.66222 61.329 1.87 60.9929 2.145C60.6568 2.42 60.3512 2.64611 60.3512 3.33667H59.8012C59.8012 2.62778 60.1618 2.26722 60.5224 1.94944C60.8096 1.69278 61.0846 1.57056 61.0846 1.11833C61.0846 0.757778 60.7912 0.488889 60.3207 0.488889C59.7829 0.488889 59.3918 0.739444 59.3918 1.50333ZM60.0762 4.49778C59.8868 4.49778 59.7401 4.36945 59.7401 4.16167C59.7401 3.96 59.8868 3.82556 60.0762 3.82556C60.2657 3.82556 60.4124 3.96 60.4124 4.16167C60.4124 4.36945 60.2657 4.49778 60.0762 4.49778Z" fill="#16141E"/>
<path id="Vector_2" d="M57.2611 4.11195C57.8845 4.11195 58.1167 3.70862 58.1717 3.49473H58.6606C58.5017 4.07529 58.0556 4.53973 57.2795 4.53973C56.3323 4.53973 55.7578 3.87362 55.7578 2.89584C55.7578 1.85695 56.3445 1.25195 57.255 1.25195C58.2328 1.25195 58.7095 1.91806 58.7095 3.02418H56.2467C56.2467 3.5864 56.5828 4.11195 57.2611 4.11195ZM57.255 1.67973C56.6684 1.67973 56.2467 2.09529 56.2467 2.5964H58.2206C58.2206 2.09529 57.8417 1.67973 57.255 1.67973Z" fill="#16141E"/>
<path id="Vector_3" d="M55.4529 1.76354H54.8418V3.63965C54.8418 3.9941 55.0373 4.05521 55.4529 4.02465V4.45243C55.3429 4.47688 55.2145 4.4891 55.0862 4.4891C54.6706 4.4891 54.3529 4.3241 54.3529 3.68854V1.76354H53.8945V1.33576H54.3529V0.296875H54.8418V1.33576H55.4529V1.76354Z" fill="#16141E"/>
<path id="Vector_4" d="M52.9477 2.13195C52.9477 1.88751 52.8132 1.67973 52.3121 1.67973C51.7193 1.67973 51.5238 1.85084 51.4932 2.30306H51.0043C51.0349 1.70418 51.4077 1.25195 52.3121 1.25195C52.9049 1.25195 53.4366 1.48418 53.4366 2.23584V3.7514C53.4366 3.99584 53.4793 4.13029 53.791 4.09362V4.43584C53.6627 4.47862 53.5955 4.48473 53.5038 4.48473C53.2105 4.48473 53.0332 4.40529 52.9477 4.06306H52.9355C52.7399 4.3564 52.3916 4.53973 51.8782 4.53973C51.2488 4.53973 50.8516 4.17918 50.8516 3.65362C50.8516 2.94473 51.3771 2.7614 52.1838 2.60862C52.7093 2.51084 52.9477 2.44362 52.9477 2.13195ZM51.9271 4.11195C52.5077 4.11195 52.9477 3.84918 52.9477 3.25029V2.73084C52.856 2.82251 52.5566 2.90806 52.2266 2.97529C51.6216 3.10362 51.3405 3.2564 51.3405 3.62918C51.3405 3.93473 51.5238 4.11195 51.9271 4.11195Z" fill="#16141E"/>
<path id="Vector_5" d="M49.882 0.084101H50.3709V4.45355H49.882V4.06855H49.8698C49.6865 4.30688 49.3932 4.5391 48.892 4.5391C48.1098 4.5391 47.4865 3.92188 47.4865 2.89521C47.4865 1.86855 48.1098 1.25132 48.892 1.25132C49.3932 1.25132 49.6865 1.47132 49.8698 1.74021H49.882V0.084101ZM48.9409 4.11132C49.5215 4.11132 49.882 3.62855 49.882 2.89521C49.882 2.16188 49.5215 1.6791 48.9409 1.6791C48.2993 1.6791 47.9754 2.2841 47.9754 2.89521C47.9754 3.50632 48.2993 4.11132 48.9409 4.11132Z" fill="#16141E"/>
<path id="Vector_6" d="M45.7606 1.25195C46.5306 1.25195 47.154 1.86918 47.154 2.89584C47.154 3.92251 46.5306 4.53973 45.7606 4.53973C45.2473 4.53973 44.954 4.31973 44.7706 4.05084H44.7584V5.50529H44.2695V1.33751H44.7584V1.72251H44.7706C44.954 1.48418 45.2473 1.25195 45.7606 1.25195ZM45.6995 4.11195C46.3412 4.11195 46.6651 3.50695 46.6651 2.89584C46.6651 2.28473 46.3412 1.67973 45.6995 1.67973C45.119 1.67973 44.7584 2.16251 44.7584 2.89584C44.7584 3.62918 45.119 4.11195 45.6995 4.11195Z" fill="#16141E"/>
<path id="Vector_7" d="M43.1034 1.33789H43.5923V4.45456H43.1034V4.08178H43.0912C42.9262 4.30178 42.5962 4.54011 42.0645 4.54011C41.4962 4.54011 41.0195 4.22845 41.0195 3.51345V1.33789H41.5084V3.39122C41.5084 3.79456 41.6979 4.11234 42.1868 4.11234C42.7368 4.11234 43.1034 3.764 43.1034 3.28122V1.33789Z" fill="#16141E"/>
<path id="Vector_8" d="M37.8822 4.11195C38.5056 4.11195 38.7378 3.70862 38.7928 3.49473H39.2817C39.1228 4.07529 38.6767 4.53973 37.9006 4.53973C36.9534 4.53973 36.3789 3.87362 36.3789 2.89584C36.3789 1.85695 36.9656 1.25195 37.8761 1.25195C38.8539 1.25195 39.3306 1.91806 39.3306 3.02418H36.8678C36.8678 3.5864 37.2039 4.11195 37.8822 4.11195ZM37.8761 1.67973C37.2895 1.67973 36.8678 2.09529 36.8678 2.5964H38.8417C38.8417 2.09529 38.4628 1.67973 37.8761 1.67973Z" fill="#16141E"/>
<path id="Vector_9" d="M34.8579 1.25121C35.4262 1.25121 35.9029 1.56287 35.9029 2.27787V4.45343H35.414V2.4001C35.414 1.99676 35.2245 1.67898 34.7356 1.67898C34.1856 1.67898 33.819 2.02732 33.819 2.5101V4.45343H33.3301V0.0839844H33.819V1.70954H33.8312C33.9962 1.48954 34.3262 1.25121 34.8579 1.25121Z" fill="#16141E"/>
<path id="Vector_10" d="M32.8181 1.76354H32.207V3.63965C32.207 3.9941 32.4025 4.05521 32.8181 4.02465V4.45243C32.7081 4.47688 32.5798 4.4891 32.4514 4.4891C32.0359 4.4891 31.7181 4.3241 31.7181 3.68854V1.76354H31.2598V1.33576H31.7181V0.296875H32.207V1.33576H32.8181V1.76354Z" fill="#16141E"/>
<path id="Vector_11" d="M28.3041 4.11195C28.9274 4.11195 29.1597 3.70862 29.2147 3.49473H29.7036C29.5447 4.07529 29.0986 4.53973 28.3224 4.53973C27.3752 4.53973 26.8008 3.87362 26.8008 2.89584C26.8008 1.85695 27.3874 1.25195 28.298 1.25195C29.2758 1.25195 29.7524 1.91806 29.7524 3.02418H27.2897C27.2897 3.5864 27.6258 4.11195 28.3041 4.11195ZM28.298 1.67973C27.7113 1.67973 27.2897 2.09529 27.2897 2.5964H29.2636C29.2636 2.09529 28.8847 1.67973 28.298 1.67973Z" fill="#16141E"/>
<path id="Vector_12" d="M25.0463 4.11195C25.6696 4.11195 25.9019 3.70862 25.9569 3.49473H26.4457C26.2869 4.07529 25.8407 4.53973 25.0646 4.53973C24.1174 4.53973 23.543 3.87362 23.543 2.89584C23.543 1.85695 24.1296 1.25195 25.0402 1.25195C26.018 1.25195 26.4946 1.91806 26.4946 3.02418H24.0319C24.0319 3.5864 24.368 4.11195 25.0463 4.11195ZM25.0402 1.67973C24.4535 1.67973 24.0319 2.09529 24.0319 2.5964H26.0057C26.0057 2.09529 25.6269 1.67973 25.0402 1.67973Z" fill="#16141E"/>
<path id="Vector_13" d="M22.0018 2.60251C22.5579 2.73695 23.1874 2.82862 23.1874 3.59862C23.1874 4.16695 22.6679 4.53973 21.959 4.53973C21.0057 4.53973 20.5657 4.08751 20.5352 3.41529H21.024C21.0546 3.76362 21.1768 4.11195 21.959 4.11195C22.4907 4.11195 22.6985 3.83695 22.6985 3.62918C22.6985 3.17695 22.289 3.15251 21.8429 3.04251C21.3663 2.9264 20.6574 2.8714 20.6574 2.13806C20.6574 1.64918 21.0913 1.25195 21.8246 1.25195C22.6007 1.25195 23.0163 1.69195 23.0652 2.22973H22.5763C22.5274 1.9914 22.4113 1.67973 21.8246 1.67973C21.3846 1.67973 21.1463 1.85695 21.1463 2.1014C21.1463 2.46806 21.5679 2.49862 22.0018 2.60251Z" fill="#16141E"/>
<path id="Vector_14" d="M18.3495 1.33789H18.8384V4.45456H18.3495V4.08178H18.3373C18.1723 4.30178 17.8423 4.54011 17.3106 4.54011C16.7423 4.54011 16.2656 4.22845 16.2656 3.51345V1.33789H16.7545V3.39122C16.7545 3.79456 16.944 4.11234 17.4328 4.11234C17.9828 4.11234 18.3495 3.764 18.3495 3.28122V1.33789Z" fill="#16141E"/>
<path id="Vector_15" d="M14.268 4.53973C13.3147 4.53973 12.7402 3.86751 12.7402 2.89584C12.7402 1.92418 13.3147 1.25195 14.268 1.25195C15.2152 1.25195 15.7897 1.92418 15.7897 2.89584C15.7897 3.86751 15.2152 4.53973 14.268 4.53973ZM14.268 4.11195C14.9647 4.11195 15.3008 3.56195 15.3008 2.89584C15.3008 2.22973 14.9647 1.67973 14.268 1.67973C13.5652 1.67973 13.2291 2.22973 13.2291 2.89584C13.2291 3.56195 13.5652 4.11195 14.268 4.11195Z" fill="#16141E"/>
<path id="Vector_16" d="M12.628 1.33789L11.2957 4.71122C11.1613 5.04734 11.0024 5.50567 10.428 5.50567C10.2324 5.50567 10.0918 5.469 10.0124 5.44456V5.07789H10.0857C10.3546 5.10234 10.5441 5.084 10.7091 4.90678C10.8374 4.76622 10.9657 4.50345 10.8435 4.19789L9.66406 1.33789H10.2141L11.1674 3.88011H11.1796L12.078 1.33789H12.628Z" fill="#16141E"/>
<path id="Vector_17" d="M7.60432 0.084101H8.09321V4.45355H7.60432V4.06855H7.5921C7.40877 4.30688 7.11544 4.5391 6.61432 4.5391C5.8321 4.5391 5.20877 3.92188 5.20877 2.89521C5.20877 1.86855 5.8321 1.25132 6.61432 1.25132C7.11544 1.25132 7.40877 1.47132 7.5921 1.74021H7.60432V0.084101ZM6.66321 4.11132C7.24377 4.11132 7.60432 3.62855 7.60432 2.89521C7.60432 2.16188 7.24377 1.6791 6.66321 1.6791C6.02155 1.6791 5.69766 2.2841 5.69766 2.89521C5.69766 3.50632 6.02155 4.11132 6.66321 4.11132Z" fill="#16141E"/>
<path id="Vector_18" d="M4.40907 0.731198C4.27463 0.731198 4.10352 0.627309 4.10352 0.437865C4.10352 0.24842 4.27463 0.144531 4.40907 0.144531C4.54963 0.144531 4.71463 0.24842 4.71463 0.437865C4.71463 0.627309 4.54963 0.731198 4.40907 0.731198ZM4.16463 1.3362H4.65352V4.45286H4.16463V1.3362Z" fill="#16141E"/>
<path id="Vector_19" d="M0 4.45343V0.0839844H1.58278C2.78667 0.0839844 3.52611 0.866207 3.52611 2.27176C3.52611 3.67732 2.78667 4.45343 1.58278 4.45343H0ZM0.55 0.572873V3.96454H1.58278C2.695 3.96454 2.97611 3.12732 2.97611 2.27176C2.97611 1.41621 2.695 0.572873 1.58278 0.572873H0.55Z" fill="#16141E"/>
</g>
</svg>
