<svg width="416" height="823" viewBox="0 0 416 823" fill="none" xmlns="http://www.w3.org/2000/svg">
<g opacity="0.3">
<mask id="path-1-inside-1_44367_19380" fill="white">
<path fill-rule="evenodd" clip-rule="evenodd" d="M207.029 7.02944C202.529 2.52856 196.424 0 190.059 0H24C10.7452 0 0 10.7452 0 24V32V799C0 812.255 10.7452 823 24 823H289.479H392C405.255 823 416 812.255 416 799V290.682V56C416 42.7452 405.255 32 392 32H241.941C235.576 32 229.471 29.4714 224.971 24.9706L207.029 7.02944Z"/>
</mask>
<path d="M224.971 24.9706L225.678 24.2635L224.971 24.9706ZM207.029 7.02944L206.322 7.73654L207.029 7.02944ZM24 1H190.059V-1H24V1ZM1 32V24H-1V32H1ZM-1 32V799H1V32H-1ZM24 824H289.479V822H24V824ZM289.479 824H392V822H289.479V824ZM417 799V290.682H415V799H417ZM417 290.682V56H415V290.682H417ZM392 31H241.941V33H392V31ZM206.322 7.73654L224.263 25.6777L225.678 24.2635L207.737 6.32233L206.322 7.73654ZM241.941 31C235.841 31 229.991 28.5768 225.678 24.2635L224.263 25.6777C228.952 30.3661 235.311 33 241.941 33V31ZM417 56C417 42.1929 405.807 31 392 31V33C404.703 33 415 43.2974 415 56H417ZM-1 799C-1 812.807 10.1929 824 24 824V822C11.2975 822 1 811.703 1 799H-1ZM190.059 1C196.159 1 202.009 3.42321 206.322 7.73654L207.737 6.32233C203.048 1.63392 196.689 -1 190.059 -1V1ZM392 824C405.807 824 417 812.807 417 799H415C415 811.703 404.703 822 392 822V824ZM24 -1C10.1929 -1 -1 10.1929 -1 24H1C1 11.2975 11.2975 1 24 1V-1Z" fill="white" mask="url(#path-1-inside-1_44367_19380)"/>
</g>
</svg>
